<?xml version="1.0" standalone="no"?>
<!DOCTYPE svg PUBLIC "-//W3C//DTD SVG 20010904//EN"
 "http://www.w3.org/TR/2001/REC-SVG-20010904/DTD/svg10.dtd">
<svg version="1.0" xmlns="http://www.w3.org/2000/svg"
 width="386.000000pt" height="364.000000pt" viewBox="0 0 386.000000 364.000000"
 preserveAspectRatio="xMidYMid meet">

<g transform="translate(0.000000,364.000000) scale(0.100000,-0.100000)"
fill="#000000" stroke="none">
<path d="M0 1820 l0 -1820 1930 0 1930 0 0 1820 0 1820 -1930 0 -1930 0 0
-1820z m3077 1482 c50 -26 94 -78 128 -151 27 -56 60 -169 52 -177 -9 -9 -192
85 -283 145 -85 56 -214 171 -214 191 0 14 39 18 160 16 96 -1 122 -5 157 -24z
m-272 -942 c22 -133 54 -245 100 -345 19 -43 33 -80 31 -82 -7 -7 -73 90 -105
155 -108 214 -140 486 -80 667 l24 70 6 -180 c4 -99 15 -227 24 -285z m-595
256 c194 0 202 0 155 -14 -32 -9 -105 -15 -205 -16 -141 -1 -159 1 -200 21
l-45 22 45 -7 c25 -4 137 -7 250 -6z m470 -56 c0 -39 7 -105 16 -146 8 -42 13
-78 10 -81 -3 -3 -21 8 -41 25 -48 43 -176 128 -237 159 -27 14 -46 28 -41 32
4 5 40 14 78 20 39 7 97 23 130 36 88 33 85 35 85 -45z m-331 -54 c166 -70
395 -252 422 -335 6 -20 15 -40 20 -45 16 -18 9 -36 -16 -46 -62 -24 -70 -22
-120 19 -28 23 -53 41 -57 41 -18 0 -6 -32 24 -62 l32 -32 -42 -11 c-26 -6
-53 -23 -74 -46 -41 -45 -105 -89 -129 -89 -17 0 -17 -3 3 -52 34 -89 249
-571 264 -596 15 -23 15 -23 40 -3 57 45 169 28 209 -32 94 -145 -111 -291
-233 -166 l-29 30 -89 -20 c-134 -30 -665 -160 -699 -171 -16 -6 -38 -23 -47
-40 -73 -128 -289 -67 -275 78 l5 43 -207 191 c-113 106 -225 210 -249 232
-36 35 -45 39 -60 28 -67 -48 -78 -53 -131 -50 -53 2 -54 1 -72 -35 -25 -48
-231 -526 -279 -645 l-37 -93 34 -34 c28 -28 33 -40 33 -82 0 -60 -25 -104
-73 -126 -95 -46 -203 8 -214 107 -10 86 54 146 155 146 l50 0 65 147 c89 202
236 550 253 595 12 34 11 39 -5 48 -24 12 -51 70 -51 107 0 98 125 163 220
115 45 -22 83 -92 74 -137 -5 -30 4 -40 241 -261 136 -126 251 -231 257 -233
5 -2 19 6 31 17 34 30 62 42 102 42 75 0 138 -48 151 -115 l6 -32 81 18 c133
30 659 159 695 170 25 8 31 15 27 29 -3 11 -1 37 6 59 12 39 10 44 -119 333
-72 161 -138 312 -147 336 -16 40 -19 42 -57 42 -182 0 -291 180 -212 348 21
44 25 65 20 99 -6 48 -4 49 49 27 21 -8 45 -12 54 -9 14 6 14 8 -4 22 -11 8
-41 25 -67 39 -43 22 -47 28 -53 68 -4 25 -4 49 -1 55 13 21 142 2 225 -33z"/>
</g>
</svg>
