<svg width="50" height="50" viewBox="0 0 50 50" fill="none" xmlns="http://www.w3.org/2000/svg">
<path fill-rule="evenodd" clip-rule="evenodd" d="M31.2222 8.40747C33.931 8.40747 36.2373 10.1393 37.0919 12.5556H18.7778C16.0274 12.5556 13.3896 13.6482 11.4448 15.593C9.5 17.5379 8.40741 20.1756 8.40741 22.926V32.9438C7.19392 32.5144 6.14339 31.7194 5.4005 30.6682C4.6576 29.617 4.25889 28.3613 4.25926 27.0741V14.6297C4.25926 12.9795 4.91481 11.3968 6.08171 10.2299C7.2486 9.06302 8.83125 8.40747 10.4815 8.40747H31.2222ZM39.5185 16.7038H18.7778C17.1275 16.7038 15.5449 17.3593 14.378 18.5262C13.2111 19.6931 12.5556 21.2758 12.5556 22.926V35.3704C12.5556 37.0207 13.2111 38.6033 14.378 39.7702C15.5449 40.9371 17.1275 41.5927 18.7778 41.5927H39.5185C41.1688 41.5927 42.7514 40.9371 43.9183 39.7702C45.0852 38.6033 45.7407 37.0207 45.7407 35.3704V22.926C45.7407 21.2758 45.0852 19.6931 43.9183 18.5262C42.7514 17.3593 41.1688 16.7038 39.5185 16.7038ZM33.2963 29.1482C33.2963 30.2484 32.8593 31.3035 32.0813 32.0814C31.3034 32.8593 30.2483 33.2964 29.1481 33.2964C28.048 33.2964 26.9929 32.8593 26.215 32.0814C25.437 31.3035 25 30.2484 25 29.1482C25 28.0481 25.437 26.993 26.215 26.215C26.9929 25.4371 28.048 25.0001 29.1481 25.0001C30.2483 25.0001 31.3034 25.4371 32.0813 26.215C32.8593 26.993 33.2963 28.0481 33.2963 29.1482Z" fill="url(#paint0_linear_0_160)"/>
<defs>
<linearGradient id="paint0_linear_0_160" x1="11.821" y1="57.8396" x2="58.1833" y2="12.7123" gradientUnits="userSpaceOnUse">
<stop stop-color="#F16821"/>
<stop offset="0.572917" stop-color="#FAB95B"/>
<stop offset="0.895833" stop-color="#E8E2DB"/>
</linearGradient>
</defs>
</svg>
