<svg width="36" height="40" viewBox="0 0 36 40" fill="none" xmlns="http://www.w3.org/2000/svg">
<path d="M13.0221 7.5556C12.3621 7.5556 11.729 7.81782 11.2622 8.28458C10.7955 8.75134 10.5333 9.38439 10.5333 10.0445C10.5333 10.7046 10.7955 11.3376 11.2622 11.8044C11.729 12.2712 12.3621 12.5334 13.0221 12.5334H26.9251L23.7069 15.7515C23.2536 16.2209 23.0027 16.8496 23.0084 17.5022C23.0141 18.1548 23.2758 18.779 23.7373 19.2405C24.1987 19.7019 24.823 19.9637 25.4755 19.9694C26.1281 19.975 26.7568 19.7242 27.2262 19.2708L34.6929 11.8041C35.1595 11.3374 35.4216 10.7045 35.4216 10.0445C35.4216 9.38452 35.1595 8.75158 34.6929 8.28484L27.2262 0.818178C26.9966 0.580464 26.722 0.390855 26.4184 0.260415C26.1147 0.129974 25.7881 0.0613153 25.4576 0.0584436C25.1272 0.0555719 24.7994 0.118545 24.4936 0.243689C24.1877 0.368832 23.9098 0.55364 23.6761 0.787328C23.4424 1.02102 23.2576 1.29891 23.1325 1.60478C23.0073 1.91066 22.9443 2.23839 22.9472 2.56887C22.9501 2.89934 23.0187 3.22593 23.1492 3.52958C23.2796 3.83324 23.4692 4.10787 23.7069 4.33747L26.9251 7.5556H13.0221Z" fill="url(#paint0_linear_0_144)"/>
<path d="M22.9777 32.4445C23.6378 32.4445 24.2709 32.1823 24.7376 31.7155C25.2044 31.2487 25.4666 30.6157 25.4666 29.9556C25.4666 29.2955 25.2044 28.6624 24.7376 28.1957C24.2709 27.7289 23.6378 27.4667 22.9777 27.4667H9.07478L12.2929 24.2486C12.5306 24.019 12.7202 23.7443 12.8507 23.4407C12.9811 23.137 13.0498 22.8104 13.0527 22.48C13.0555 22.1495 12.9925 21.8218 12.8674 21.5159C12.7423 21.21 12.5575 20.9321 12.3238 20.6984C12.0901 20.4648 11.8122 20.2799 11.5063 20.1548C11.2004 20.0297 10.8727 19.9667 10.5422 19.9696C10.2118 19.9724 9.88516 20.0411 9.58151 20.1715C9.27785 20.302 9.00322 20.4916 8.77363 20.7293L1.30696 28.196C0.840365 28.6627 0.578247 29.2956 0.578247 29.9556C0.578247 30.6156 0.840365 31.2485 1.30696 31.7152L8.77363 39.1819C9.24304 39.6353 9.87174 39.8861 10.5243 39.8805C11.1769 39.8748 11.8011 39.613 12.2626 39.1516C12.7241 38.6901 12.9858 38.0659 12.9915 37.4133C12.9972 36.7607 12.7463 36.132 12.2929 35.6626L9.07478 32.4445H22.9777Z" fill="url(#paint1_linear_0_144)"/>
<defs>
<linearGradient id="paint0_linear_0_144" x1="17.9999" y1="0.0583496" x2="17.9999" y2="39.8806" gradientUnits="userSpaceOnUse">
<stop stop-color="#FAB95B"/>
<stop offset="1" stop-color="#F16821"/>
</linearGradient>
<linearGradient id="paint1_linear_0_144" x1="17.9999" y1="0.0583496" x2="17.9999" y2="39.8806" gradientUnits="userSpaceOnUse">
<stop stop-color="#FAB95B"/>
<stop offset="1" stop-color="#F16821"/>
</linearGradient>
</defs>
</svg>
