<svg width="160" height="46" viewBox="0 0 160 46" fill="none" xmlns="http://www.w3.org/2000/svg">
<g opacity="0.6">
<path d="M54.5276 11.9814C52.8098 11.9814 51.1411 12.2023 50.454 12.3741C49.4724 12.644 49.227 13.0857 49.0307 13.9692L45.1534 32.006C45.0797 32.3741 45.0307 32.6931 45.0307 32.9876C45.0307 33.871 45.6196 34.46 46.5767 34.46C47.6319 34.46 48.0491 33.7729 48.2699 32.7422L49.3742 27.6133C50.135 27.7115 51.1656 27.8097 52.6135 27.8097C58.9939 27.8097 62.9448 24.3741 62.9448 19.1716C62.9202 14.5827 59.7546 11.9814 54.5276 11.9814ZM52.4417 24.8403C51.4601 24.8403 50.6748 24.8158 49.9877 24.7176L52.0491 15.1471C52.6871 15.0489 53.6442 14.9262 54.6258 14.9262C58.0123 14.9262 59.7301 16.5213 59.7301 19.1716C59.7301 22.5581 57.2761 24.8403 52.4417 24.8403ZM154.773 28.5213C154.258 28.5213 153.914 28.8403 153.276 29.5275C152.147 30.7054 151.436 31.3434 150.528 31.3434C149.718 31.3434 149.301 30.7054 149.301 29.6502C149.301 29.0612 149.423 28.3495 149.571 27.5888L150.699 22.2391H154.11C155.19 22.2391 155.828 21.6256 155.828 20.5213C155.828 19.9078 155.436 19.4416 154.503 19.4416H151.288L151.853 16.9385C151.926 16.5704 151.975 16.2268 151.975 15.9324C151.975 15.0735 151.386 14.46 150.429 14.46C149.423 14.46 148.957 15.1471 148.736 16.1778L148.025 19.4416H146.577C145.472 19.4416 144.834 20.0551 144.834 21.1594C144.834 21.7729 145.276 22.2391 146.184 22.2391H147.436L146.307 27.5397C146.184 28.1287 146.037 29.0857 146.037 30.0673C146.037 32.5704 147.337 34.3864 150.11 34.3864C151.706 34.3864 153.129 33.5765 154.209 32.6195C155.264 31.687 156.025 30.5581 156.025 29.8219C156.049 29.1103 155.485 28.5213 154.773 28.5213ZM84 13.7974C84 12.914 83.3865 12.325 82.4294 12.325C81.4233 12.325 80.9571 13.0121 80.7362 14.0428L76.8834 31.9078C76.7853 32.2759 76.7362 32.5949 76.7362 32.8894C76.7362 33.7729 77.3497 34.3618 78.2822 34.3618C79.3374 34.3618 79.7791 33.6747 80 32.644L83.8528 14.779C83.9018 14.4109 84 14.0919 84 13.7974ZM138.92 19.1471C133.988 19.1471 130.65 24.0305 130.65 28.6931C130.65 28.7913 130.65 28.8649 130.65 28.963C129.89 30.1409 128.883 31.3434 128.221 31.3434C127.73 31.3434 127.534 30.8772 127.534 30.1655C127.534 29.3066 127.779 27.8587 128.049 26.6072L130.601 14.779C130.675 14.4109 130.724 14.0919 130.724 13.7974C130.724 12.914 130.135 12.325 129.178 12.325C128.123 12.325 127.706 13.0121 127.485 14.0428L126.11 20.4477C125.374 19.687 124.294 19.1471 122.675 19.1471C119.411 19.1471 116.123 21.6747 114.847 25.5275C113.423 29.1839 112.172 31.3434 111.166 31.3434C110.798 31.3434 110.577 31.0244 110.577 30.5091C110.577 28.963 111.436 25.2084 111.804 23.3925C111.926 22.7054 112 22.4354 112 22.0428C112 20.6931 109.742 19.098 106.822 19.098C103.436 19.098 100.368 21.233 98.8466 24.4232C96.5644 28.4477 94.4785 31.3434 93.4478 31.3434C92.9816 31.3434 92.8343 30.7544 92.7117 30.2146L91.9509 25.9692L96.6626 22.1164C97.1043 21.7483 97.6442 21.233 97.6442 20.5459C97.6442 19.7115 97.0797 19.1716 96.2699 19.1716C95.6564 19.1716 95.1411 19.5397 94.6012 19.9814L87.5337 25.8219L89.9141 14.8035C89.9877 14.4354 90.0613 14.1164 90.0613 13.8219C90.0613 12.9385 89.4478 12.3495 88.4908 12.3495C87.4847 12.3495 87.0184 13.0367 86.7975 14.0673L82.9448 31.9324C82.8466 32.3005 82.7975 32.6195 82.7975 32.914C82.7975 33.7974 83.411 34.3864 84.3436 34.3864C85.3988 34.3864 85.8405 33.6992 86.0613 32.6686L86.5521 30.3618L89.4478 28.0305L90.1595 31.5888C90.4294 33.0121 91.1656 34.3864 93.0797 34.3864C94.9693 34.3864 96.4663 32.644 97.9632 30.3127C98.4049 32.7667 100.172 34.3864 102.577 34.3864C105.006 34.3864 106.675 32.9385 107.755 30.9999V31.0735C107.755 33.0857 108.761 34.3864 110.552 34.3864C112.172 34.3864 113.497 33.4048 114.699 31.3434C115.386 33.1348 116.908 34.3864 119.018 34.3864C121.521 34.3864 123.288 32.8894 124.442 30.779V30.9753C124.442 33.1839 125.546 34.3864 127.362 34.3864C128.957 34.3864 130.331 33.4538 131.485 31.9324C132.368 33.4538 133.963 34.3864 136.098 34.3864C141.031 34.3864 144.368 29.5029 144.368 24.8158C144.344 21.5029 142.356 19.1471 138.92 19.1471ZM108.245 25.4048C107.362 29.2575 105.448 31.4416 103.288 31.4416C101.84 31.4416 101.031 30.3373 101.031 28.6686C101.031 25.4048 103.411 21.8956 106.577 21.8956C107.534 21.8956 108.27 22.1655 108.908 22.5827L108.245 25.4048ZM125.399 23.7606C124.417 28.2759 122.16 31.417 119.706 31.417C118.356 31.417 117.546 30.3618 117.546 28.644C117.546 25.3557 119.828 21.9446 122.871 21.9446C124.049 21.9446 124.933 22.3373 125.571 22.8771L125.399 23.7606ZM136.442 31.417C134.65 31.417 133.914 30.1164 133.914 28.4968C133.914 25.5029 135.975 22.0919 138.552 22.0919C140.344 22.0919 141.08 23.3925 141.08 25.0121C141.08 28.0305 139.018 31.417 136.442 31.417ZM70.6012 19.1471C65.6687 19.1471 62.3313 24.0305 62.3313 28.6931C62.3313 32.006 64.3436 34.3864 67.7546 34.3864C72.6871 34.3864 76.0245 29.5029 76.0245 24.8158C76 21.5029 74.0123 19.1471 70.6012 19.1471ZM68.0982 31.417C66.3067 31.417 65.5706 30.1164 65.5706 28.4968C65.5706 25.5029 67.6319 22.0919 70.2086 22.0919C72 22.0919 72.7362 23.3925 72.7362 25.0121C72.7362 28.0305 70.6748 31.417 68.0982 31.417Z" fill="white"/>
<path d="M23.6074 7.27002C26.7485 7.27002 29.2761 8.74241 29.2761 10.5829C29.2761 12.3989 26.7239 13.8958 23.6074 13.8958C20.4908 13.8958 17.9387 12.4234 17.9387 10.5829C17.9387 8.76695 20.4663 7.27002 23.6074 7.27002ZM23.6074 32.1535C26.7485 32.1535 29.2761 33.6258 29.2761 35.4663C29.2761 37.3068 26.7239 38.7792 23.6074 38.7792C20.4908 38.7792 17.9387 37.3068 17.9387 35.4663C17.9387 33.6258 20.4663 32.1535 23.6074 32.1535ZM9.9632 15.1473C11.5338 12.4234 14.0859 10.9755 15.6565 11.8835C17.227 12.7915 17.2515 15.7363 15.681 18.4602C14.1104 21.1841 11.5583 22.632 9.98774 21.724C8.41719 20.816 8.39265 17.8712 9.9632 15.1473ZM31.5092 27.589C33.0798 24.8651 35.6319 23.4173 37.2025 24.3252C38.773 25.2332 38.7976 28.178 37.227 30.9019C35.6565 33.6259 33.1043 35.0737 31.5338 34.1657C29.9632 33.2578 29.9632 30.313 31.5092 27.589ZM9.98774 24.3252C11.5583 23.4173 14.1104 24.8651 15.681 27.589C17.2515 30.313 17.227 33.2578 15.6565 34.1657C14.0859 35.0737 11.5338 33.6259 9.9632 30.9019C8.39265 28.178 8.41719 25.2332 9.98774 24.3252ZM31.5338 11.8835C33.1043 10.9755 35.6565 12.4234 37.227 15.1473C38.7976 17.8712 38.7976 20.816 37.2025 21.724C35.6319 22.632 33.0798 21.1841 31.5092 18.4602C29.9632 15.7363 29.9632 12.7915 31.5338 11.8835Z" fill="white"/>
</g>
</svg>
